<svg width="40" height="40" viewBox="0 0 40 40" fill="none" xmlns="http://www.w3.org/2000/svg">
<path d="M9.13477 3.31976C8.98719 3.12991 8.8009 2.97364 8.58828 2.86132C8.37566 2.74901 8.14157 2.68321 7.90157 2.66832C7.66157 2.65342 7.42114 2.68976 7.19626 2.77492C6.97139 2.86008 6.7672 2.99212 6.59727 3.16226L4.01227 5.74976C2.80477 6.95976 2.35977 8.67226 2.88727 10.1748C5.07662 16.3937 8.63801 22.04 13.3073 26.6948C17.9621 31.364 23.6083 34.9253 29.8273 37.1148C31.3298 37.6423 33.0423 37.1973 34.2523 35.9898L36.8373 33.4048C37.0074 33.2348 37.1395 33.0306 37.2246 32.8058C37.3098 32.5809 37.3461 32.3405 37.3312 32.1005C37.3163 31.8605 37.2505 31.6264 37.1382 31.4138C37.0259 31.2011 36.8696 31.0148 36.6798 30.8673L30.9123 26.3823C30.7094 26.225 30.4735 26.1158 30.2224 26.0629C29.9712 26.0101 29.7113 26.015 29.4623 26.0773L23.9873 27.4448C23.2565 27.6274 22.4908 27.6177 21.7649 27.4166C21.0389 27.2155 20.3774 26.8299 19.8448 26.2973L13.7048 20.1548C13.1717 19.6224 12.7856 18.961 12.5841 18.235C12.3825 17.5091 12.3724 16.7433 12.5548 16.0123L13.9248 10.5373C13.987 10.2883 13.9919 10.0283 13.9391 9.77717C13.8863 9.52599 13.7771 9.29008 13.6198 9.08726L9.13477 3.31976ZM4.70977 1.27726C5.14726 0.839635 5.67284 0.500087 6.25162 0.281164C6.8304 0.0622412 7.44913 -0.0310472 8.06673 0.00749353C8.68432 0.0460342 9.28666 0.215522 9.83373 0.504703C10.3808 0.793883 10.8601 1.19614 11.2398 1.68476L15.7248 7.44976C16.5473 8.50726 16.8373 9.88476 16.5123 11.1848L15.1448 16.6598C15.0741 16.9433 15.0779 17.2404 15.1559 17.522C15.2338 17.8037 15.3833 18.0604 15.5898 18.2673L21.7323 24.4098C21.9394 24.6166 22.1965 24.7664 22.4787 24.8444C22.7608 24.9223 23.0583 24.9259 23.3423 24.8548L28.8148 23.4873C29.4563 23.3269 30.1259 23.3144 30.773 23.4508C31.42 23.5873 32.0276 23.869 32.5498 24.2748L38.3148 28.7598C40.3873 30.3723 40.5773 33.4348 38.7223 35.2873L36.1373 37.8723C34.2873 39.7223 31.5223 40.5348 28.9448 39.6273C22.3477 37.3061 16.358 33.5294 11.4198 28.5773C6.468 23.6398 2.69129 17.6509 0.369774 11.0548C-0.535226 8.47976 0.277274 5.71226 2.12727 3.86226L4.71227 1.27726H4.70977ZM27.4998 1.24976C27.4998 0.91824 27.6315 0.600298 27.8659 0.365877C28.1003 0.131457 28.4183 -0.000239123 28.7498 -0.000239123H38.7498C39.0813 -0.000239123 39.3992 0.131457 39.6337 0.365877C39.8681 0.600298 39.9998 0.91824 39.9998 1.24976V11.2498C39.9998 11.5813 39.8681 11.8992 39.6337 12.1336C39.3992 12.3681 39.0813 12.4998 38.7498 12.4998C38.4183 12.4998 38.1003 12.3681 37.8659 12.1336C37.6315 11.8992 37.4998 11.5813 37.4998 11.2498V4.26726L27.1348 14.6348C26.9001 14.8695 26.5817 15.0013 26.2498 15.0013C25.9178 15.0013 25.5995 14.8695 25.3648 14.6348C25.1301 14.4 24.9982 14.0817 24.9982 13.7498C24.9982 13.4178 25.1301 13.0995 25.3648 12.8648L35.7323 2.49976H28.7498C28.4183 2.49976 28.1003 2.36806 27.8659 2.13364C27.6315 1.89922 27.4998 1.58128 27.4998 1.24976Z" fill="#1E1E1E"/>
</svg>
