<svg width="149" height="24" viewBox="0 0 149 24" fill="none" xmlns="http://www.w3.org/2000/svg">
<path d="M10.6523 17H6.39844L0.09375 0.125H4.83984L9.51562 13.707L13.7461 0.125H16.6289L10.6523 17ZM16.7109 11.2109C16.7109 10.5938 16.7617 9.95312 16.8633 9.28906C16.9727 8.625 17.125 7.96094 17.3203 7.29688C17.5234 6.63281 17.7656 5.97656 18.0469 5.32812C18.3281 4.67969 18.6445 4.05859 18.9961 3.46484H21.8906C21.6953 4.05078 21.5195 4.66406 21.3633 5.30469C21.2148 5.9375 21.0859 6.57422 20.9766 7.21484C20.875 7.84766 20.793 8.46875 20.7305 9.07812C20.6758 9.6875 20.6484 10.2539 20.6484 10.7773C20.6484 11.082 20.6602 11.4102 20.6836 11.7617C20.7148 12.1055 20.7656 12.4531 20.8359 12.8047C20.9062 13.1484 21.0039 13.4805 21.1289 13.8008C21.2617 14.1211 21.4297 14.4062 21.6328 14.6562C21.8359 14.8984 22.082 15.0938 22.3711 15.2422C22.668 15.3828 23.0156 15.4531 23.4141 15.4531C23.8047 15.4531 24.1523 15.3672 24.457 15.1953C24.7695 15.0156 25.043 14.7852 25.2773 14.5039C25.5117 14.2148 25.7109 13.8867 25.875 13.5195C26.0391 13.1523 26.1719 12.7773 26.2734 12.3945C26.3828 12.0039 26.4609 11.625 26.5078 11.2578C26.5625 10.8828 26.5898 10.5469 26.5898 10.25V3.46484H30.5508V17H29.0273L27.2109 13.8477C26.9844 14.3711 26.707 14.8477 26.3789 15.2773C26.0586 15.6992 25.6914 16.0625 25.2773 16.3672C24.8633 16.6719 24.4023 16.9062 23.8945 17.0703C23.3945 17.2344 22.8516 17.3164 22.2656 17.3164C21.3281 17.3164 20.5117 17.1641 19.8164 16.8594C19.1211 16.5547 18.543 16.1328 18.082 15.5938C17.6211 15.0547 17.2773 14.4141 17.0508 13.6719C16.8242 12.9219 16.7109 12.1016 16.7109 11.2109ZM48.1523 10.2031C48.1523 10.9062 48.0586 11.5664 47.8711 12.1836C47.6836 12.8008 47.4219 13.3711 47.0859 13.8945C46.7578 14.418 46.3594 14.8906 45.8906 15.3125C45.4219 15.7266 44.9062 16.0781 44.3438 16.3672C43.7891 16.6562 43.1914 16.8789 42.5508 17.0352C41.918 17.1914 41.2656 17.2695 40.5938 17.2695C39.9219 17.2695 39.2695 17.1914 38.6367 17.0352C38.0039 16.8789 37.4062 16.6562 36.8438 16.3672C36.2891 16.0781 35.7773 15.7266 35.3086 15.3125C34.8398 14.8906 34.4375 14.418 34.1016 13.8945C33.7734 13.3711 33.5156 12.8008 33.3281 12.1836C33.1406 11.5586 33.0469 10.8984 33.0469 10.2031C33.0469 9.50781 33.1406 8.85156 33.3281 8.23438C33.5156 7.60938 33.7734 7.03516 34.1016 6.51172C34.4375 5.98828 34.8398 5.51953 35.3086 5.10547C35.7773 4.68359 36.2891 4.32813 36.8438 4.03906C37.4062 3.75 38.0039 3.52734 38.6367 3.37109C39.2695 3.21484 39.9219 3.13672 40.5938 3.13672C41.2656 3.13672 41.918 3.21484 42.5508 3.37109C43.1914 3.52734 43.7891 3.75 44.3438 4.03906C44.9062 4.32813 45.4219 4.68359 45.8906 5.10547C46.3594 5.51953 46.7578 5.98828 47.0859 6.51172C47.4219 7.03516 47.6836 7.60938 47.8711 8.23438C48.0586 8.85156 48.1523 9.50781 48.1523 10.2031ZM44.1211 10.2031C44.1211 9.82812 44.0977 9.43359 44.0508 9.01953C44.0117 8.59766 43.9414 8.1875 43.8398 7.78906C43.7383 7.38281 43.5977 6.99609 43.418 6.62891C43.2461 6.25391 43.0312 5.92969 42.7734 5.65625C42.5156 5.375 42.207 5.15234 41.8477 4.98828C41.4883 4.81641 41.0703 4.73047 40.5938 4.73047C40.1406 4.73047 39.7383 4.81641 39.3867 4.98828C39.0352 5.16016 38.7266 5.39062 38.4609 5.67969C38.2031 5.96094 37.9844 6.28906 37.8047 6.66406C37.6328 7.03906 37.4922 7.42969 37.3828 7.83594C37.2734 8.23438 37.1953 8.64062 37.1484 9.05469C37.1016 9.46094 37.0781 9.84375 37.0781 10.2031C37.0781 10.5625 37.1016 10.9492 37.1484 11.3633C37.1953 11.7695 37.2734 12.1758 37.3828 12.582C37.4922 12.9883 37.6328 13.3789 37.8047 13.7539C37.9844 14.1211 38.2031 14.4492 38.4609 14.7383C38.7266 15.0195 39.0352 15.2461 39.3867 15.418C39.7383 15.5898 40.1406 15.6758 40.5938 15.6758C41.0625 15.6758 41.4766 15.5938 41.8359 15.4297C42.1953 15.2578 42.5039 15.0312 42.7617 14.75C43.0273 14.4688 43.2461 14.1445 43.418 13.7773C43.5898 13.4102 43.7266 13.0234 43.8281 12.6172C43.9375 12.2109 44.0117 11.8008 44.0508 11.3867C44.0977 10.9727 44.1211 10.5781 44.1211 10.2031ZM64.5 9.24219C64.5 10.1562 64.3867 11.1094 64.1602 12.1016C63.9414 13.0938 63.6328 14.0664 63.2344 15.0195C62.8359 15.9727 62.3594 16.8672 61.8047 17.7031C61.25 18.5469 60.6406 19.2734 59.9766 19.8828L58.4883 19.0742C58.6992 18.6836 58.8984 18.2461 59.0859 17.7617C59.2734 17.2773 59.4414 16.7656 59.5898 16.2266C59.7461 15.6797 59.8828 15.1172 60 14.5391C60.125 13.9609 60.2266 13.3906 60.3047 12.8281C60.3906 12.2578 60.4531 11.707 60.4922 11.1758C60.5391 10.6367 60.5625 10.1367 60.5625 9.67578C60.5625 9.37109 60.5508 9.04688 60.5273 8.70312C60.5039 8.35156 60.4531 8.00391 60.375 7.66016C60.3047 7.30859 60.207 6.97266 60.082 6.65234C59.957 6.33203 59.7891 6.05078 59.5781 5.80859C59.375 5.56641 59.125 5.37109 58.8281 5.22266C58.5391 5.07422 58.1953 5 57.7969 5C57.4062 5 57.0586 5.08984 56.7539 5.26953C56.4492 5.44141 56.1797 5.67188 55.9453 5.96094C55.7109 6.24219 55.5078 6.56641 55.3359 6.93359C55.1719 7.30078 55.0352 7.67969 54.9258 8.07031C54.8242 8.45312 54.75 8.83203 54.7031 9.20703C54.6562 9.58203 54.6328 9.91797 54.6328 10.2148V17H50.6602V3.46484H52.1836L54 6.61719C54.2188 6.09375 54.4922 5.61719 54.8203 5.1875C55.1484 4.75781 55.5195 4.39062 55.9336 4.08594C56.3477 3.78125 56.8047 3.54688 57.3047 3.38281C57.8125 3.21875 58.3594 3.13672 58.9453 3.13672C59.8828 3.13672 60.6992 3.28906 61.3945 3.59375C62.0898 3.89844 62.668 4.32422 63.1289 4.87109C63.5898 5.41016 63.9336 6.05469 64.1602 6.80469C64.3867 7.54688 64.5 8.35938 64.5 9.24219ZM80.7422 15.3711C80.7422 16.4492 80.582 17.4648 80.2617 18.418C79.9414 19.3711 79.4766 20.2031 78.8672 20.9141C78.2578 21.6328 77.5078 22.1992 76.6172 22.6133C75.7344 23.0352 74.7266 23.2461 73.5938 23.2461C72.9688 23.2461 72.3359 23.1758 71.6953 23.0352C71.0625 22.8945 70.4609 22.6758 69.8906 22.3789C69.3281 22.0898 68.8203 21.7188 68.3672 21.2656C67.9219 20.8203 67.5703 20.293 67.3125 19.6836L69.0234 19.0391C69.1719 19.4219 69.3633 19.7734 69.5977 20.0938C69.8398 20.4141 70.1172 20.6875 70.4297 20.9141C70.7422 21.1484 71.0859 21.3281 71.4609 21.4531C71.8359 21.5859 72.2305 21.6523 72.6445 21.6523C73.4258 21.6523 74.0781 21.4922 74.6016 21.1719C75.1328 20.8516 75.5586 20.4336 75.8789 19.918C76.1992 19.4023 76.4297 18.8164 76.5703 18.1602C76.7109 17.5117 76.7812 16.8516 76.7812 16.1797V15.3828C76.3125 16.0234 75.7461 16.5 75.082 16.8125C74.4258 17.1172 73.7031 17.2695 72.9141 17.2695C71.8828 17.2695 70.9609 17.0859 70.1484 16.7188C69.3359 16.3516 68.6484 15.8516 68.0859 15.2188C67.5234 14.5781 67.0938 13.8281 66.7969 12.9688C66.5 12.1094 66.3516 11.1875 66.3516 10.2031C66.3516 9.21875 66.5 8.29688 66.7969 7.4375C67.0938 6.57812 67.5234 5.83203 68.0859 5.19922C68.6484 4.55859 69.3359 4.05469 70.1484 3.6875C70.9609 3.32031 71.8828 3.13672 72.9141 3.13672C73.4375 3.13672 73.9336 3.21484 74.4023 3.37109C74.8789 3.52734 75.3125 3.75 75.7031 4.03906C76.1016 4.32031 76.4492 4.66406 76.7461 5.07031C77.0508 5.46875 77.2891 5.91406 77.4609 6.40625L79.2188 3.46484H80.7422V15.3711ZM76.7578 10.2031C76.7578 9.85156 76.7383 9.48047 76.6992 9.08984C76.668 8.69922 76.6094 8.3125 76.5234 7.92969C76.4375 7.54688 76.3164 7.18359 76.1602 6.83984C76.0117 6.48828 75.8164 6.17969 75.5742 5.91406C75.3398 5.64062 75.0547 5.42578 74.7188 5.26953C74.3828 5.11328 73.9922 5.03516 73.5469 5.03516C73.1016 5.03516 72.7148 5.11719 72.3867 5.28125C72.0586 5.4375 71.7773 5.65234 71.543 5.92578C71.3086 6.19141 71.1133 6.5 70.957 6.85156C70.8086 7.20312 70.6914 7.57031 70.6055 7.95312C70.5195 8.33594 70.457 8.72266 70.418 9.11328C70.3867 9.49609 70.3711 9.85938 70.3711 10.2031C70.3711 10.5469 70.3867 10.9141 70.418 11.3047C70.457 11.6953 70.5195 12.082 70.6055 12.4648C70.6914 12.8477 70.8086 13.2148 70.957 13.5664C71.1133 13.918 71.3086 14.2305 71.543 14.5039C71.7773 14.7695 72.0586 14.9844 72.3867 15.1484C72.7148 15.3047 73.1016 15.3828 73.5469 15.3828C73.9531 15.3828 74.3125 15.3008 74.625 15.1367C74.9453 14.9648 75.2227 14.7383 75.457 14.457C75.6992 14.1758 75.9023 13.8555 76.0664 13.4961C76.2305 13.1367 76.3633 12.7656 76.4648 12.3828C76.5664 12 76.6406 11.6211 76.6875 11.2461C76.7344 10.8633 76.7578 10.5156 76.7578 10.2031ZM88.9688 17H84.3164V0.125H96.4336V2.28125H88.9688V7.49609H94.7344V9.64062H88.9688V17ZM111.445 17H107.484V15.3828C107.016 16.0234 106.449 16.5 105.785 16.8125C105.129 17.1172 104.406 17.2695 103.617 17.2695C102.586 17.2695 101.664 17.0859 100.852 16.7188C100.039 16.3516 99.3516 15.8516 98.7891 15.2188C98.2266 14.5781 97.7969 13.8281 97.5 12.9688C97.2031 12.1094 97.0547 11.1875 97.0547 10.2031C97.0547 9.21875 97.2031 8.29688 97.5 7.4375C97.7969 6.57812 98.2266 5.83203 98.7891 5.19922C99.3516 4.55859 100.039 4.05469 100.852 3.6875C101.664 3.32031 102.586 3.13672 103.617 3.13672C104.141 3.13672 104.637 3.21484 105.105 3.37109C105.582 3.52734 106.016 3.75 106.406 4.03906C106.805 4.32031 107.152 4.66406 107.449 5.07031C107.754 5.46875 107.992 5.91406 108.164 6.40625L109.922 3.46484H111.445V17ZM107.461 10.2031C107.461 9.85156 107.441 9.48047 107.402 9.08984C107.371 8.69922 107.312 8.3125 107.227 7.92969C107.141 7.54688 107.02 7.18359 106.863 6.83984C106.715 6.48828 106.52 6.17969 106.277 5.91406C106.043 5.64062 105.758 5.42578 105.422 5.26953C105.086 5.11328 104.695 5.03516 104.25 5.03516C103.805 5.03516 103.418 5.11719 103.09 5.28125C102.762 5.4375 102.48 5.65234 102.246 5.92578C102.012 6.19141 101.816 6.5 101.66 6.85156C101.512 7.20312 101.395 7.57031 101.309 7.95312C101.223 8.33594 101.16 8.72266 101.121 9.11328C101.09 9.49609 101.074 9.85938 101.074 10.2031C101.074 10.5469 101.09 10.9141 101.121 11.3047C101.16 11.6953 101.223 12.082 101.309 12.4648C101.395 12.8477 101.512 13.2148 101.66 13.5664C101.816 13.918 102.012 14.2305 102.246 14.5039C102.48 14.7695 102.762 14.9844 103.09 15.1484C103.418 15.3047 103.805 15.3828 104.25 15.3828C104.656 15.3828 105.016 15.3008 105.328 15.1367C105.648 14.9648 105.926 14.7383 106.16 14.457C106.402 14.1758 106.605 13.8555 106.77 13.4961C106.934 13.1367 107.066 12.7656 107.168 12.3828C107.27 12 107.344 11.6211 107.391 11.2461C107.438 10.8633 107.461 10.5156 107.461 10.2031ZM126.27 4.66016L124.043 8.35156C123.949 8.03906 123.828 7.6875 123.68 7.29688C123.531 6.90625 123.348 6.54297 123.129 6.20703C122.91 5.86328 122.648 5.57812 122.344 5.35156C122.039 5.11719 121.688 5 121.289 5C120.922 5 120.602 5.09375 120.328 5.28125C120.062 5.46875 119.836 5.71484 119.648 6.01953C119.461 6.31641 119.305 6.65625 119.18 7.03906C119.062 7.41406 118.969 7.79688 118.898 8.1875C118.836 8.57031 118.793 8.94141 118.77 9.30078C118.746 9.65234 118.734 9.95703 118.734 10.2148V17H114.762V3.46484H116.285L117.891 6.61719C118.109 6.10938 118.359 5.64453 118.641 5.22266C118.922 4.79297 119.246 4.42578 119.613 4.12109C119.98 3.80859 120.395 3.56641 120.855 3.39453C121.324 3.22266 121.852 3.13672 122.438 3.13672C122.742 3.13672 123.082 3.16406 123.457 3.21875C123.832 3.26562 124.199 3.35156 124.559 3.47656C124.918 3.59375 125.25 3.75 125.555 3.94531C125.859 4.14063 126.098 4.37891 126.27 4.66016ZM148.875 9.10156C148.875 10.0312 148.766 11 148.547 12.0078C148.328 13.0156 148.02 14 147.621 14.9609C147.23 15.9141 146.758 16.8164 146.203 17.668C145.648 18.5195 145.031 19.2578 144.352 19.8828L142.863 19.0742C143.09 18.668 143.297 18.2109 143.484 17.7031C143.672 17.1953 143.844 16.6602 144 16.0977C144.156 15.5352 144.293 14.957 144.41 14.3633C144.527 13.7695 144.625 13.1797 144.703 12.5938C144.789 12 144.852 11.4258 144.891 10.8711C144.93 10.3164 144.949 9.79688 144.949 9.3125C144.949 9.03906 144.941 8.74219 144.926 8.42188C144.91 8.10156 144.875 7.78125 144.82 7.46094C144.773 7.14062 144.699 6.83594 144.598 6.54688C144.496 6.25 144.355 5.98828 144.176 5.76172C144.004 5.52734 143.785 5.34375 143.52 5.21094C143.262 5.07031 142.949 5 142.582 5C142.223 5 141.914 5.09766 141.656 5.29297C141.406 5.48047 141.191 5.72656 141.012 6.03125C140.832 6.33594 140.688 6.67969 140.578 7.0625C140.477 7.44531 140.398 7.83203 140.344 8.22266C140.289 8.60547 140.25 8.97266 140.227 9.32422C140.211 9.67578 140.203 9.97266 140.203 10.2148V17H136.254V10.6953C136.254 10.4219 136.258 10.0938 136.266 9.71094C136.273 9.32031 136.262 8.91406 136.23 8.49219C136.207 8.07031 136.156 7.65234 136.078 7.23828C136.008 6.81641 135.891 6.44141 135.727 6.11328C135.57 5.78516 135.355 5.51953 135.082 5.31641C134.809 5.10547 134.465 5 134.051 5C133.699 5 133.402 5.09766 133.16 5.29297C132.926 5.48828 132.727 5.74219 132.562 6.05469C132.406 6.35938 132.281 6.70703 132.188 7.09766C132.102 7.48047 132.035 7.86719 131.988 8.25781C131.949 8.64062 131.926 9.00781 131.918 9.35938C131.91 9.70312 131.906 9.98828 131.906 10.2148V17H127.934V3.46484H129.457L130.91 6.61719C131.238 5.52344 131.754 4.67188 132.457 4.0625C133.168 3.44531 134.109 3.13672 135.281 3.13672C136.336 3.13672 137.211 3.35547 137.906 3.79297C138.602 4.23047 139.148 4.94141 139.547 5.92578C139.773 5.49609 140.023 5.10938 140.297 4.76562C140.578 4.42188 140.887 4.12891 141.223 3.88672C141.566 3.64453 141.945 3.46094 142.359 3.33594C142.773 3.20313 143.23 3.13672 143.73 3.13672C144.652 3.13672 145.438 3.28906 146.086 3.59375C146.742 3.89062 147.277 4.30469 147.691 4.83594C148.105 5.36719 148.406 6 148.594 6.73438C148.781 7.46094 148.875 8.25 148.875 9.10156Z" fill="#1E1E1E"/>
</svg>
