<svg width="102" height="24" viewBox="0 0 102 24" fill="none" xmlns="http://www.w3.org/2000/svg">
<path d="M0.656 2.88H3.944V15.408H10.04V18H0.656V2.88ZM19.0586 6.552H22.2506V18H19.8746L19.5386 16.704H19.4426C19.2666 16.88 19.0586 17.064 18.8186 17.256C18.5946 17.432 18.3226 17.6 18.0026 17.76C17.6986 17.904 17.3466 18.024 16.9466 18.12C16.5626 18.216 16.1306 18.264 15.6506 18.264C14.4186 18.264 13.4426 17.92 12.7226 17.232C12.0186 16.544 11.6666 15.528 11.6666 14.184V6.552H14.8586V13.92C14.8586 14.608 15.0186 15.104 15.3386 15.408C15.6746 15.712 16.0986 15.864 16.6106 15.864C17.1866 15.864 17.6746 15.744 18.0746 15.504C18.4906 15.264 18.8186 14.984 19.0586 14.664V6.552ZM25.3117 7.56C25.9997 7.16 26.7277 6.856 27.4957 6.648C28.2637 6.424 29.0797 6.312 29.9437 6.312C30.6317 6.312 31.2557 6.392 31.8157 6.552C32.3917 6.712 32.8797 6.968 33.2797 7.32C33.6957 7.656 34.0077 8.096 34.2157 8.64C34.4397 9.168 34.5517 9.808 34.5517 10.56V18H32.0797L31.7917 16.824H31.6957C31.3277 17.272 30.8557 17.624 30.2797 17.88C29.7197 18.136 29.0637 18.264 28.3117 18.264C27.6877 18.264 27.1357 18.176 26.6557 18C26.1757 17.808 25.7677 17.56 25.4317 17.256C25.0957 16.936 24.8397 16.56 24.6637 16.128C24.5037 15.696 24.4237 15.232 24.4237 14.736C24.4237 14.08 24.5597 13.52 24.8317 13.056C25.1197 12.576 25.5117 12.184 26.0077 11.88C26.5037 11.576 27.0797 11.352 27.7357 11.208C28.4077 11.064 29.1277 10.992 29.8957 10.992H31.3357V10.296C31.3357 9.768 31.1677 9.384 30.8317 9.144C30.5117 8.888 30.0557 8.76 29.4637 8.76C28.9997 8.76 28.5197 8.832 28.0237 8.976C27.5437 9.12 27.0077 9.352 26.4157 9.672L25.3117 7.56ZM31.3597 12.984L30.3277 13.008C29.3517 13.04 28.6717 13.208 28.2877 13.512C27.9037 13.8 27.7117 14.152 27.7117 14.568C27.7117 15.112 27.8717 15.488 28.1917 15.696C28.5277 15.888 28.9037 15.984 29.3197 15.984C29.7357 15.984 30.1277 15.864 30.4957 15.624C30.8797 15.384 31.1677 15.104 31.3597 14.784V12.984ZM40.4523 18H37.2603V6.552H39.7563L40.1403 8.016C40.6683 7.472 41.2443 7.056 41.8683 6.768C42.5083 6.464 43.2123 6.312 43.9803 6.312C45.2443 6.312 46.2123 6.656 46.8843 7.344C47.5563 8.032 47.8923 9.032 47.8923 10.344V18H44.7003V10.68C44.7003 10.088 44.5563 9.624 44.2683 9.288C43.9803 8.936 43.5563 8.76 42.9963 8.76C42.5803 8.76 42.1403 8.88 41.6763 9.12C41.2283 9.344 40.8203 9.656 40.4523 10.056V18ZM55.9192 2.616C56.8952 2.616 57.7592 2.712 58.5112 2.904C59.2632 3.096 59.9352 3.344 60.5272 3.648L59.7832 6.096C59.1272 5.776 58.4952 5.536 57.8872 5.376C57.2792 5.2 56.6872 5.112 56.1112 5.112C55.3432 5.112 54.7432 5.264 54.3112 5.568C53.8952 5.872 53.6872 6.28 53.6872 6.792C53.6872 7.32 53.8712 7.72 54.2392 7.992C54.6072 8.264 55.1992 8.528 56.0152 8.784L57.4552 9.24C58.6552 9.64 59.5912 10.208 60.2632 10.944C60.9512 11.68 61.2952 12.584 61.2952 13.656C61.2952 14.296 61.1752 14.896 60.9352 15.456C60.6952 16.016 60.3352 16.504 59.8552 16.92C59.3752 17.336 58.7752 17.664 58.0552 17.904C57.3352 18.144 56.4952 18.264 55.5352 18.264C53.7272 18.264 52.0712 17.896 50.5672 17.16L51.3112 14.712C51.9992 15.048 52.6712 15.312 53.3272 15.504C53.9832 15.68 54.6712 15.768 55.3912 15.768C56.2392 15.768 56.8792 15.616 57.3112 15.312C57.7432 14.992 57.9592 14.552 57.9592 13.992C57.9592 13.8 57.9192 13.616 57.8392 13.44C57.7752 13.248 57.6472 13.072 57.4552 12.912C57.2632 12.736 56.9992 12.568 56.6632 12.408C56.3432 12.232 55.9192 12.064 55.3912 11.904L54.1192 11.472C53.5592 11.28 53.0472 11.056 52.5832 10.8C52.1192 10.544 51.7192 10.248 51.3832 9.912C51.0632 9.576 50.8072 9.184 50.6152 8.736C50.4392 8.272 50.3512 7.736 50.3512 7.128C50.3512 6.472 50.4712 5.872 50.7112 5.328C50.9512 4.768 51.3032 4.288 51.7672 3.888C52.2472 3.488 52.8312 3.176 53.5192 2.952C54.2232 2.728 55.0232 2.616 55.9192 2.616ZM66.9144 18H63.7224V0.863999H66.9144V7.584C67.3784 7.216 67.9064 6.912 68.4984 6.672C69.1064 6.432 69.7624 6.312 70.4664 6.312C71.1384 6.312 71.7224 6.416 72.2184 6.624C72.7304 6.816 73.1464 7.096 73.4664 7.464C73.8024 7.816 74.0504 8.248 74.2104 8.76C74.3704 9.256 74.4504 9.8 74.4504 10.392V18H71.2584V10.944C71.2584 10.16 71.0984 9.6 70.7784 9.264C70.4584 8.928 69.9944 8.76 69.3864 8.76C68.9704 8.76 68.5384 8.864 68.0904 9.072C67.6584 9.264 67.2664 9.528 66.9144 9.864V18ZM88.5213 12.192C88.5213 13.136 88.3693 13.984 88.0653 14.736C87.7613 15.488 87.3373 16.128 86.7933 16.656C86.2653 17.168 85.6413 17.568 84.9213 17.856C84.2013 18.128 83.4253 18.264 82.5933 18.264C81.7613 18.264 80.9853 18.136 80.2653 17.88C79.5613 17.624 78.9453 17.248 78.4173 16.752C77.9053 16.256 77.4973 15.648 77.1933 14.928C76.9053 14.192 76.7613 13.36 76.7613 12.432C76.7613 11.456 76.9133 10.592 77.2173 9.84C77.5213 9.072 77.9373 8.432 78.4653 7.92C79.0093 7.392 79.6413 6.992 80.3613 6.72C81.0813 6.448 81.8573 6.312 82.6893 6.312C83.5213 6.312 84.2893 6.44 84.9933 6.696C85.7133 6.952 86.3293 7.328 86.8413 7.824C87.3693 8.304 87.7773 8.912 88.0653 9.648C88.3693 10.384 88.5213 11.232 88.5213 12.192ZM85.2333 12.312C85.2333 11.656 85.1613 11.096 85.0173 10.632C84.8733 10.168 84.6813 9.792 84.4413 9.504C84.2013 9.216 83.9213 9.008 83.6013 8.88C83.2813 8.736 82.9533 8.664 82.6173 8.664C82.2813 8.664 81.9613 8.728 81.6573 8.856C81.3533 8.968 81.0813 9.168 80.8413 9.456C80.6013 9.728 80.4093 10.096 80.2653 10.56C80.1213 11.024 80.0493 11.608 80.0493 12.312C80.0493 12.936 80.1213 13.48 80.2653 13.944C80.4093 14.392 80.6013 14.76 80.8413 15.048C81.0973 15.336 81.3773 15.552 81.6813 15.696C82.0013 15.84 82.3293 15.912 82.6653 15.912C83.0013 15.912 83.3213 15.856 83.6253 15.744C83.9293 15.616 84.2013 15.408 84.4413 15.12C84.6813 14.832 84.8733 14.464 85.0173 14.016C85.1613 13.552 85.2333 12.984 85.2333 12.312ZM96.1916 18.264C95.7756 18.264 95.3596 18.208 94.9436 18.096C94.5436 18 94.2076 17.872 93.9356 17.712V23.52H90.7676V6.504H93.1916L93.5276 7.776C93.9916 7.328 94.5196 6.976 95.1116 6.72C95.7036 6.448 96.3676 6.312 97.1036 6.312C98.6076 6.312 99.7916 6.824 100.656 7.848C101.536 8.856 101.976 10.256 101.976 12.048C101.976 13.056 101.824 13.952 101.52 14.736C101.216 15.504 100.8 16.152 100.272 16.68C99.7436 17.208 99.1276 17.608 98.4236 17.88C97.7196 18.136 96.9756 18.264 96.1916 18.264ZM96.2396 8.712C95.7116 8.712 95.2476 8.84 94.8476 9.096C94.4476 9.336 94.1436 9.584 93.9356 9.84V15.312C94.4316 15.712 95.0476 15.912 95.7836 15.912C96.1356 15.912 96.4796 15.848 96.8156 15.72C97.1676 15.576 97.4796 15.36 97.7516 15.072C98.0396 14.768 98.2636 14.376 98.4236 13.896C98.5996 13.416 98.6876 12.832 98.6876 12.144C98.6876 11.648 98.6316 11.192 98.5196 10.776C98.4236 10.36 98.2716 10 98.0636 9.696C97.8556 9.392 97.5996 9.152 97.2956 8.976C96.9916 8.8 96.6396 8.712 96.2396 8.712Z" fill="#1565C0"/>
</svg>
